<svg width="24" height="20" viewBox="0 0 24 20" fill="none" xmlns="http://www.w3.org/2000/svg">
<g clip-path="url(#clip0_103_265)">
<path fill-rule="evenodd" clip-rule="evenodd" d="M31.9943 0.438757V-0.564988V-0.567767C31.9943 -4.61334 34.5953 -7.04346 38.2279 -7.04346C39.6043 -7.04346 40.8675 -6.73483 41.7474 -6.27327L40.7517 -2.72541C40.371 -2.99511 39.836 -3.18696 39.185 -3.18696C37.8087 -3.18696 36.8902 -2.26107 36.8902 -0.564988V0.438757H40.6386V4.71788H36.8902V19.0595H31.9943V4.71788H28.9355V0.438757H31.9943ZM43.4299 -6.65699H48.2871V19.0567H43.4299V-6.65699ZM61.6728 -0.0255928C55.5909 -0.0255928 51.9197 4.44539 51.9197 9.72826C51.9197 15.0111 55.5909 19.521 61.6728 19.521C67.7547 19.521 71.4645 15.0501 71.4645 9.72826C71.4645 4.40646 67.7933 -0.0255928 61.6728 -0.0255928ZM61.6728 15.1641C58.6525 15.1641 56.9672 12.6589 56.9672 9.72826C56.9672 6.79765 58.6498 4.33139 61.6728 4.33139C64.6958 4.33139 66.4142 6.83658 66.4142 9.72826C66.4142 12.6199 64.693 15.1641 61.6728 15.1641ZM93.5689 12.9675L97.0084 0.435966H102.059L96.4347 19.0567H91.274L87.3712 6.37503L83.471 19.0567H78.269L72.6478 0.435966H77.6953L81.1376 12.9675L85.1922 0.435966H89.5143L93.5689 12.9675ZM21.2537 7.15356L15.1139 0.964252L14.987 0.839132L14.5899 0.435966L14.1927 0.839132L14.0658 0.964252L8.85827 6.21376L4.06172 1.37854L3.9376 1.25064L3.53766 0.850252L3.14047 1.25064L3.01359 1.37854L2.19716 2.20156L2.07028 2.32946L1.6731 2.72985L2.07028 3.13301L2.19716 3.25813L8.33421 9.44744L8.46109 9.57533L8.85827 9.97572L9.25821 9.57533L9.38234 9.44744L14.5899 4.20071L19.3864 9.03592L19.5133 9.16105L19.9105 9.56421L20.3104 9.16105L20.4345 9.03592L21.2537 8.21013L21.3806 8.08223L21.7778 7.68184L21.3806 7.28146L21.2537 7.15356ZM15.1139 10.0925L21.2537 16.2818L21.3806 16.4097L21.7778 16.8101L21.3806 17.2132L21.2537 17.3383L20.4345 18.1641L20.3104 18.2893L19.9105 18.6924L19.5133 18.292L19.3864 18.1641L14.5899 13.3289L9.38234 18.5757L9.25821 18.7036L8.85827 19.1039L8.46109 18.7036L8.33421 18.5757L2.19716 12.3864L2.07028 12.2612L1.6731 11.8581L2.07028 11.4577L2.19716 11.3298L3.01359 10.5068L3.14047 10.3789L3.53766 9.97847L3.9376 10.3789L4.06172 10.5068L8.85827 15.342L14.0658 10.0925L14.1927 9.96735L14.5899 9.56419L14.987 9.96735L15.1139 10.0925Z" fill="#FF7600"/>
</g>
<defs>
<clipPath id="clip0_103_265">
<rect width="23.3333" height="19.8333" fill="white" transform="translate(0 0.0833435)"/>
</clipPath>
</defs>
</svg>
