<svg width="75" height="28" viewBox="0 0 75 28" fill="none" xmlns="http://www.w3.org/2000/svg">
<g clip-path="url(#clip0_103_278)">
<path fill-rule="evenodd" clip-rule="evenodd" d="M3.90253 8.5221V7.51836V7.51558C3.90253 3.47001 6.48947 1.03989 10.1024 1.03989C11.4713 1.03989 12.7278 1.34852 13.6029 1.81007L12.6125 5.35794C12.234 5.08823 11.7018 4.89638 11.0543 4.89638C9.68543 4.89638 8.77191 5.82228 8.77191 7.51836V8.5221H12.5001V12.8012H8.77191V27.1428H3.90253V12.8012H0.860191V8.5221H3.90253ZM15.2763 1.42636H20.1073V27.14H15.2763V1.42636ZM33.4205 8.05775C27.3715 8.05775 23.7202 12.5287 23.7202 17.8116C23.7202 23.0945 27.3715 27.6044 33.4205 27.6044C39.4695 27.6044 43.1593 23.1334 43.1593 17.8116C43.1593 12.4898 39.5079 8.05775 33.4205 8.05775ZM33.4205 23.2474C30.4166 23.2474 28.7404 20.7422 28.7404 17.8116C28.7404 14.881 30.4138 12.4147 33.4205 12.4147C36.4272 12.4147 38.1363 14.9199 38.1363 17.8116C38.1363 20.7033 36.4244 23.2474 33.4205 23.2474ZM65.1442 21.0509L68.5651 8.51934H73.5881L67.9945 27.1401H62.8618L58.98 14.4584L55.1009 27.1401H49.927L44.3362 8.51934H49.3564L52.7801 21.0509L56.8128 8.51934H61.1115L65.1442 21.0509ZM-6.78003 15.2369L-12.8866 9.04762L-13.0128 8.9225L-13.4079 8.51934L-13.8029 8.9225L-13.9291 9.04762L-19.1085 14.2971L-23.8791 9.46191L-24.0026 9.33401L-24.4003 8.93362L-24.7954 9.33401L-24.9216 9.46191L-25.7336 10.2849L-25.8598 10.4128L-26.2548 10.8132L-25.8598 11.2164L-25.7336 11.3415L-19.6297 17.5308L-19.5035 17.6587L-19.1085 18.0591L-18.7107 17.6587L-18.5873 17.5308L-13.4079 12.2841L-8.63725 17.1193L-8.51106 17.2444L-8.11602 17.6476L-7.71824 17.2444L-7.59479 17.1193L-6.78003 16.2935L-6.65383 16.1656L-6.2588 15.7652L-6.65383 15.3648L-6.78003 15.2369ZM-12.8866 18.1758L-6.78003 24.3651L-6.65383 24.493L-6.2588 24.8934L-6.65383 25.2966L-6.78003 25.4217L-7.59479 26.2475L-7.71824 26.3726L-8.11602 26.7758L-8.51106 26.3754L-8.63725 26.2475L-13.4079 21.4123L-18.5873 26.659L-18.7107 26.7869L-19.1085 27.1873L-19.5035 26.7869L-19.6297 26.659L-25.7336 20.4697L-25.8598 20.3446L-26.2548 19.9414L-25.8598 19.541L-25.7336 19.4131L-24.9216 18.5901L-24.7954 18.4622L-24.4003 18.0618L-24.0026 18.4622L-23.8791 18.5901L-19.1085 23.4254L-13.9291 18.1758L-13.8029 18.0507L-13.4079 17.6476L-13.0128 18.0507L-12.8866 18.1758Z" fill="black"/>
</g>
<defs>
<clipPath id="clip0_103_278">
<rect width="74.6667" height="28" fill="white" transform="translate(0.333374 3.05176e-05)"/>
</clipPath>
</defs>
</svg>
